<?xml version="1.0" encoding="utf-8"?>
<!-- Generator: Adobe Illustrator 19.0.0, SVG Export Plug-In . SVG Version: 6.00 Build 0)  -->
<svg version="1.1" id="图层_1" xmlns="http://www.w3.org/2000/svg" xmlns:xlink="http://www.w3.org/1999/xlink" x="0px" y="0px"
	 viewBox="0 0 200 200" style="enable-background:new 0 0 200 200;" xml:space="preserve">
<g>
	<path class="st0" d="M186,114H14c-7.7,0-14-6.3-14-14v0c0-7.7,6.3-14,14-14h172c7.7,0,14,6.3,14,14v0C200,107.7,193.7,114,186,114z
		"/>
	<path class="st0" d="M114,14v172c0,7.7-6.3,14-14,14h0c-7.7,0-14-6.3-14-14V14c0-7.7,6.3-14,14-14h0C107.7,0,114,6.3,114,14z"/>
</g>
</svg>
