<?xml version="1.0" encoding="utf-8"?>
<!-- Generator: Adobe Illustrator 19.0.0, SVG Export Plug-In . SVG Version: 6.00 Build 0)  -->
<svg version="1.1" id="图层_1" xmlns="http://www.w3.org/2000/svg" xmlns:xlink="http://www.w3.org/1999/xlink" x="0px" y="0px"
	 viewBox="0 0 200 200" style="enable-background:new 0 0 200 200;" xml:space="preserve">
<g>
	<path d="M50.5,110.2c-2.5,0-5-0.9-6.9-2.8c-3.8-3.8-3.8-9.9,0-13.7l87.3-87.2c3.8-3.8,9.9-3.8,13.7,0c3.8,3.8,3.8,9.9,0,13.7
		l-87.3,87.2C55.4,109.3,52.9,110.2,50.5,110.2L50.5,110.2z"/>
	<path d="M137.7,197.4c-2.5,0-5-0.9-6.9-2.8l-87.2-87.2c-3.8-3.8-3.8-9.9,0-13.7c3.8-3.8,9.9-3.8,13.7,0l87.2,87.2
		c3.8,3.8,3.8,9.9,0,13.7C142.6,196.5,140.2,197.4,137.7,197.4z"/>
</g>
</svg>
