<?xml version="1.0" encoding="utf-8"?>
<!-- Generator: Adobe Illustrator 19.0.0, SVG Export Plug-In . SVG Version: 6.00 Build 0)  -->
<svg version="1.1" id="图层_1" xmlns="http://www.w3.org/2000/svg" xmlns:xlink="http://www.w3.org/1999/xlink" x="0px" y="0px"
	 viewBox="0 0 200 200" style="enable-background:new 0 0 200 200;" xml:space="preserve">
<style type="text/css">
	.st0{fill:#2C2C2C;}
</style>
<path class="st0" d="M67.3,86h65.5c2.6,0,4.7-2.1,4.7-4.7c0-2.6-2.1-4.7-4.7-4.7H67.3c-2.6,0-4.7,2.1-4.7,4.7
	C62.6,83.9,64.7,86,67.3,86z"/>
<path class="st0" d="M86,53.2H114c7.7,0,14-6.3,14-14c0-7.7-6.3-14-14-14H86c-7.7,0-14,6.3-14,14C71.9,47,78.2,53.2,86,53.2z"/>
<path class="st0" d="M86,34.5H114c2.6,0,4.7,2.1,4.7,4.7c0,2.6-2.1,4.7-4.7,4.7H86c-2.6,0-4.7-2.1-4.7-4.7
	C81.3,36.6,83.4,34.5,86,34.5z"/>
<path class="st0" d="M137.4,109.3c0-2.6-2.1-4.7-4.7-4.7l-65.5,0c-2.6,0-4.7,2.1-4.7,4.7c0,2.6,2.1,4.7,4.7,4.7h65.5
	C135.3,114,137.4,111.9,137.4,109.3z"/>
<path class="st0" d="M151.4,34.5h-14v9.4h14c2.6,0,4.7,2.1,4.7,4.7v112.2c0,2.6-2.1,4.7-4.7,4.7l-102.9,0c-2.6,0-4.7-2.1-4.7-4.7
	V48.6c0-2.6,2.1-4.7,4.7-4.7h14v-9.4h-14c-7.7,0-14,6.3-14,14v112.2c0,7.7,6.3,14,14,14h102.9c7.7,0,14-6.3,14-14V48.6
	C165.5,40.8,159.2,34.5,151.4,34.5z"/>
<path class="st0" d="M70.1,132.7c-4.1,0-7.5,2.1-7.5,4.7c0,2.6,3.3,4.7,7.5,4.7h59.8c4.1,0,7.5-2.1,7.5-4.7c0-2.6-3.3-4.7-7.5-4.7
	L70.1,132.7z"/>
</svg>
