<?xml version="1.0" encoding="utf-8"?>
<!-- Generator: Adobe Illustrator 19.0.0, SVG Export Plug-In . SVG Version: 6.00 Build 0)  -->
<svg version="1.1" id="图层_1" xmlns="http://www.w3.org/2000/svg" xmlns:xlink="http://www.w3.org/1999/xlink" x="0px" y="0px"
	 viewBox="0 0 200 200" style="enable-background:new 0 0 200 200;" xml:space="preserve">
<path d="M11.1,69.8l0,89.3c0,7,5.8,12.8,12.8,12.8h158.9c7,0,12.8-5.8,12.8-12.8V69.8c0-8.1-5.8-13.9-12.8-13.9l-3.5,0
	c0-3.5-3.5-7-7-7h-12.8c-3.5,0-7,3.5-7,7h-15.1l-4.6-16.2c0-7-5.8-12.8-12.8-12.8H50.6c-7,0-12.8,5.8-12.8,12.8l-2.3,16.2H22.7
	C15.8,55.8,10,61.6,11.1,69.8z M156.1,69.8c0-5.8,4.6-9.3,9.3-9.3c4.6,0,9.3,4.6,9.3,9.3s-3.5,8.1-9.3,8.1
	C160.8,77.9,156.1,74.4,156.1,69.8z M35.5,110.4c0-27.8,22-49.9,49.9-49.9s49.9,22,49.9,49.9s-22,49.9-49.9,49.9
	S35.5,138.2,35.5,110.4z M49.4,110.4c0,19.7,16.2,36,36,36s36-16.2,36-36s-16.2-36-36-36S49.4,90.6,49.4,110.4z"/>
</svg>
