<?xml version="1.0" encoding="utf-8"?>
<!-- Generator: Adobe Illustrator 19.0.0, SVG Export Plug-In . SVG Version: 6.00 Build 0)  -->
<svg version="1.1" id="图层_1" xmlns="http://www.w3.org/2000/svg" xmlns:xlink="http://www.w3.org/1999/xlink" x="0px" y="0px"
	 viewBox="0 0 200 200" style="enable-background:new 0 0 200 200;" xml:space="preserve">
<path class="st0" d="M100.2,11.8L1.5,106.3l29.5,0l0,63.5c-0.6,7.7,6.8,19.2,18.3,20.1l24.8,0.1c8.7-0.6,11.7-7.4,11.7-12l0-37.8
	c-0.1-2.6,1.1-3.3,3.1-3.4l23.1,0c2.3,0.1,2.6,1.7,2.7,2.5v37.7c-0.2,4.6,1.7,12.2,11.7,13.1l23.5,0c9,0.1,19.5-9,19.6-19.5l0-64.1
	l29.4-0.2L100.2,11.8z"/>
</svg>
