<?xml version="1.0" encoding="utf-8"?>
<!-- Generator: Adobe Illustrator 19.0.0, SVG Export Plug-In . SVG Version: 6.00 Build 0)  -->
<svg version="1.1" id="图层_1" xmlns="http://www.w3.org/2000/svg" xmlns:xlink="http://www.w3.org/1999/xlink" x="0px" y="0px"
	 viewBox="0 0 200 200" style="enable-background:new 0 0 200 200;" xml:space="preserve">
<g>
	<path class="st0" d="M60,137.8"/>
	<path class="st0" d="M78.9,157.3"/>
	<path class="st0" d="M161.1,162.8c0.5-3.2,0.7-6.6,0.7-9.9v-51.6c0-34.1-27.6-61.6-61.6-61.6c-34.1,0-61.6,27.6-61.6,61.6v51.6
		c0,3.4,0.2,6.7,0.7,9.9H161.1L161.1,162.8z"/>
	<path class="st0" d="M24,35.8"/>
	<path class="st0" d="M15.5,108.6H7.7c-4.1,0-7.5-3.4-7.5-7.5l0,0c0-4.1,3.4-7.5,7.5-7.5h7.7c4.1,0,7.5,3.4,7.5,7.5l0,0
		C22.9,105.3,19.6,108.6,15.5,108.6z"/>
	<path class="st0" d="M107.6,8.5v7.7c0,4.1-3.4,7.5-7.5,7.5l0,0c-4.1,0-7.5-3.4-7.5-7.5V8.5c0-4.1,3.4-7.5,7.5-7.5l0,0
		C104.2,1.1,107.6,4.5,107.6,8.5z"/>
	<path class="st0" d="M171,40.9l-5.5,5.5c-2.9,2.9-7.6,2.9-10.4,0l0,0c-2.9-2.9-2.9-7.6,0-10.4l5.5-5.5c2.9-2.9,7.6-2.9,10.4,0l0,0
		C173.9,33.3,173.9,37.9,171,40.9z"/>
	<path class="st0" d="M40.1,30.5l5.5,5.5c2.9,2.9,2.9,7.6,0,10.4l0,0c-2.9,2.9-7.6,2.9-10.4,0l-5.5-5.5c-2.9-2.9-2.9-7.6,0-10.4l0,0
		C32.5,27.6,37.2,27.6,40.1,30.5z"/>
	<path class="st0" d="M192.7,108.6h-7.8c-4.1,0-7.5-3.4-7.5-7.5l0,0c0-4.1,3.4-7.5,7.5-7.5h7.7c4.1,0,7.5,3.4,7.5,7.5l0,0
		C200.1,105.3,196.8,108.6,192.7,108.6z"/>
	<path class="st0" d="M179.6,197.1H20.4c-7,0-12.7-5.7-12.7-12.7v-1.1c0-7,5.7-12.7,12.7-12.7h159.2c7,0,12.7,5.7,12.7,12.7v1.1
		C192.3,191.4,186.6,197.1,179.6,197.1z"/>
</g>
</svg>
