<?xml version="1.0" encoding="utf-8"?>
<!-- Generator: Adobe Illustrator 19.0.0, SVG Export Plug-In . SVG Version: 6.00 Build 0)  -->
<svg version="1.1" id="图层_1" xmlns="http://www.w3.org/2000/svg" xmlns:xlink="http://www.w3.org/1999/xlink" x="0px" y="0px"
	 viewBox="0 0 200 200" style="enable-background:new 0 0 200 200;" xml:space="preserve">
<style type="text/css">
	.st0{fill:#008ED2;}
	.st1{fill:#FFFFFF;}
</style>
<g>
	<circle class="st0" cx="100" cy="100" r="100"/>
	<g>
		<g>
			<path class="st1" d="M108.8,93.1c7.2,1.7,13.2,5.5,18.8,11c15.5,15.5,15.5,39.7,0,55.2s-39.7,15.5-55.2,0
				c-15.5-15.5-15.5-39.7,0-55.2c6.1-6.1,12.7-9.4,21-11V67.7H81.2l0-15.5h12.1l0-7.7l-12.1,0l0-15.5l27.6,0L108.8,93.1z
				 M116.6,148.3c9.4-9.4,9.4-23.7,0-33.1c-9.4-9.4-23.7-9.4-33.1,0s-9.4,23.7,0,33.1C92.8,157.7,107.7,157.1,116.6,148.3
				L116.6,148.3z M116.6,148.3"/>
		</g>
	</g>
</g>
</svg>
