<?xml version="1.0" encoding="utf-8"?>
<!-- Generator: Adobe Illustrator 19.0.0, SVG Export Plug-In . SVG Version: 6.00 Build 0)  -->
<svg version="1.1" id="图层_1" xmlns="http://www.w3.org/2000/svg" xmlns:xlink="http://www.w3.org/1999/xlink" x="0px" y="0px"
	 viewBox="0 0 200 200" style="enable-background:new 0 0 200 200;" xml:space="preserve">
<g>
	<path class="st0" d="M163,0H37.6C22.8,0,10.6,12.1,10.6,26.9v146.2c0,14.8,12.1,26.9,26.9,26.9h125.4c14.8,0,26.9-12.1,26.9-26.9
		V26.9C189.9,12.1,177.8,0,163,0z M49.6,53.8h100.3c2.4,0,4.6,1.3,5.9,3.4c1.2,2.1,1.2,4.6,0,6.7c-1.2,2.1-3.5,3.4-5.9,3.4H49.6
		c-3.7,0-6.7-3.1-6.7-6.7C42.9,56.8,45.9,53.8,49.6,53.8z M42.9,100.7c0-3.7,3.1-6.7,6.7-6.7h75.1c1.8,0,3.5,0.7,4.7,2
		c1.3,1.3,2,2.9,2,4.7l0,0c0,1.8-0.7,3.5-2,4.7s-2.9,2-4.7,2H49.6C45.9,107.5,42.9,104.4,42.9,100.7L42.9,100.7z M50.7,147.6
		c-2.4,0-4.6-1.3-5.9-3.4c-1.2-2.1-1.2-4.6,0-6.7s3.5-3.4,5.9-3.4h49.6c2.4,0,4.6,1.3,5.9,3.4c1.2,2.1,1.2,4.6,0,6.7
		c-1.2,2.1-3.5,3.4-5.9,3.4H50.7z M186.7,144.7l-32.5,32.5l-22.8,22.8h-21.7c-3.7,0-6.7-3.1-6.7-6.7v-21.8l22.7-22.7l32.6-32.6
		c2.1-2.1,4.9-3.3,7.9-3.3c2.9,0,5.8,1.2,7.9,3.3l12.6,12.6c2.1,2.1,3.3,4.9,3.3,7.9S188.8,142.6,186.7,144.7z"/>
	<path class="st0" d="M169.3,130.5c-0.8-0.8-2-1.3-3.2-1.3c-1.2,0-2.3,0.4-3.2,1.3l-46.6,46.6v9.6h9.5l46.7-46.7
		c1.8-1.8,1.8-4.6,0-6.3L169.3,130.5z"/>
</g>
</svg>
