<?xml version="1.0" encoding="utf-8"?>
<!-- Generator: Adobe Illustrator 19.0.0, SVG Export Plug-In . SVG Version: 6.00 Build 0)  -->
<svg version="1.1" id="图层_1" xmlns="http://www.w3.org/2000/svg" xmlns:xlink="http://www.w3.org/1999/xlink" x="0px" y="0px"
	 viewBox="0 0 200 200" style="enable-background:new 0 0 200 200;" xml:space="preserve">
<path d="M38,143.8V81.3C38,51,59.5,25.8,88,20v-7.5C88,5.6,93.6,0,100.5,0S113,5.6,113,12.5V20c28.5,5.8,50,31,50,61.3v62.5h6.3
	c6.9,0,12.5,5.6,12.5,12.5c0,6.9-5.6,12.5-12.5,12.5H31.7c-6.9,0-12.5-5.6-12.5-12.5c0-6.9,5.6-12.5,12.5-12.5H38z M119.3,181.3
	c0,10.4-8.4,18.8-18.8,18.8s-18.8-8.4-18.8-18.8H119.3z"/>
</svg>
