<?xml version="1.0" encoding="utf-8"?>
<!-- Generator: Adobe Illustrator 19.0.0, SVG Export Plug-In . SVG Version: 6.00 Build 0)  -->
<svg version="1.1" id="图层_1" xmlns="http://www.w3.org/2000/svg" xmlns:xlink="http://www.w3.org/1999/xlink" x="0px" y="0px"
	 viewBox="0 0 200 200" style="enable-background:new 0 0 200 200;" xml:space="preserve">
<g>
	<path d="M21.6,197.6c-2,0-4.1-0.8-5.6-2.3c-3.1-3.1-3.1-8.2,0-11.3l84.2-84.2L15.9,15.6c-3.1-3.1-3.1-8.2,0-11.3s8.2-3.1,11.3,0
		L117,94.1c3.1,3.1,3.1,8.2,0,11.3l-89.8,89.8C25.6,196.8,23.6,197.6,21.6,197.6z"/>
	<path d="M90.9,197.6c-2,0-4.1-0.8-5.6-2.3c-3.1-3.1-3.1-8.2,0-11.3l84.2-84.2L85.2,15.6c-3.1-3.1-3.1-8.2,0-11.3s8.2-3.1,11.3,0
		l89.8,89.8c3.1,3.1,3.1,8.2,0,11.3l-89.8,89.8C94.9,196.8,92.9,197.6,90.9,197.6z"/>
</g>
</svg>
