<?xml version="1.0" encoding="utf-8"?>
<!-- Generator: Adobe Illustrator 19.0.0, SVG Export Plug-In . SVG Version: 6.00 Build 0)  -->
<svg version="1.1" id="图层_1" xmlns="http://www.w3.org/2000/svg" xmlns:xlink="http://www.w3.org/1999/xlink" x="0px" y="0px"
	 viewBox="0 0 200 200" style="enable-background:new 0 0 200 200;" xml:space="preserve">
<path d="M19.5,137.2h0.4V169c0,8,6.6,14.6,14.6,14.6H166c8,0,14.6-6.6,14.6-14.6v-31.8h0.4c1.1-2.6,3.7-4.7,6.9-4.7s5.8,1.8,6.9,4.7
	h0.4V169c0,16.1-13.1,29.2-29.2,29.2H34.5C18.4,198.2,5.3,185,5.3,169v-31.8h0.4c1.1-2.9,4-4.7,6.9-4.7S18.4,134.3,19.5,137.2z
	 M19.9,66.7V37.5c0-8,6.6-14.6,14.6-14.6H166c8,0,14.6,6.6,14.6,14.6v29.2c0,4,3.3,7.3,7.3,7.3s7.3-3.3,7.3-7.3V37.5
	c0-16.1-13.1-29.2-29.2-29.2H34.5C18.4,8.3,5.3,21.4,5.3,37.5v29.2c0,4,3.3,7.3,7.3,7.3S19.9,70.7,19.9,66.7z M8.9,95.9h182.6
	c4,0,7.3,3.3,7.3,7.3c0,4-3.3,7.3-7.3,7.3H8.9c-4,0-7.3-3.3-7.3-7.3S4.9,95.9,8.9,95.9z"/>
</svg>
